<?xml version="1.0" standalone="no"?>
<!DOCTYPE svg PUBLIC "-//W3C//DTD SVG 20010904//EN"
 "http://www.w3.org/TR/2001/REC-SVG-20010904/DTD/svg10.dtd">
<svg version="1.0" xmlns="http://www.w3.org/2000/svg"
 width="1350.000000pt" height="1350.000000pt" viewBox="0 0 1350.000000 1350.000000"
 preserveAspectRatio="xMidYMid meet">
<metadata>
Created by potrace 1.11, written by Peter Selinger 2001-2013
</metadata>
<g transform="translate(0.000000,1350.000000) scale(0.100000,-0.100000)"
fill="#000000" stroke="none">
<path d="M3290 11940 l0 -810 270 0 270 0 0 270 0 270 250 0 250 0 0 -270 0
-270 268 2 267 3 3 808 2 807 -270 0 -270 0 0 -265 0 -265 -250 0 -250 0 0
265 0 265 -270 0 -270 0 0 -810z"/>
<path d="M5100 12480 l0 -270 240 0 240 0 0 -540 0 -540 270 0 270 0 0 540 0
540 240 0 240 0 0 270 0 270 -750 0 -750 0 0 -270z"/>
<path d="M6830 11940 l0 -810 265 0 265 0 2 400 3 400 184 -285 c102 -157 187
-285 190 -285 3 0 87 126 186 280 99 154 183 279 188 280 4 0 7 -178 7 -395
l0 -395 268 2 267 3 3 808 2 807 -287 -2 -286 -3 -167 -275 c-92 -151 -171
-275 -176 -274 -5 0 -85 125 -178 277 l-168 277 -284 0 -284 0 0 -810z"/>
<path d="M8920 11940 l0 -810 653 2 652 3 0 265 0 265 -382 3 -383 2 0 540 0
540 -270 0 -270 0 0 -810z"/>
<path d="M2506 10348 c2 -24 95 -1055 205 -2293 110 -1237 228 -2574 264
-2970 35 -396 117 -1314 181 -2040 64 -726 120 -1323 123 -1327 8 -9 3440
-960 3466 -960 16 0 3350 920 3450 952 l30 10 153 1717 c84 945 238 2674 343
3843 104 1169 207 2328 229 2575 22 248 42 469 45 493 l5 42 -4250 0 -4250 0
6 -42z m3329 -1227 c47 -21 111 -88 131 -138 19 -45 20 -140 1 -185 -21 -50
-76 -108 -122 -129 -48 -22 -142 -25 -189 -5 -120 50 -189 208 -141 323 53
127 200 189 320 134z m-275 -486 c-100 -204 -74 -402 84 -639 64 -97 133 -177
331 -391 154 -166 246 -282 298 -374 l30 -53 51 58 c155 178 379 402 531 530
81 69 258 199 347 255 140 89 392 206 589 272 72 25 298 76 406 92 118 18 351
20 454 4 164 -25 329 -87 449 -169 136 -92 293 -300 342 -452 18 -54 25 -67
38 -61 8 4 41 9 73 11 48 3 64 0 101 -22 125 -73 169 -207 109 -326 -16 -30
-45 -68 -66 -84 -32 -26 -49 -31 -107 -34 -90 -5 -112 1 -161 45 -115 104
-128 252 -30 347 22 22 38 43 34 49 -3 5 -41 35 -84 67 -95 71 -243 131 -379
155 -101 18 -247 16 -366 -6 -158 -28 -411 -131 -544 -222 -84 -57 -232 -216
-272 -292 -98 -188 -117 -270 -125 -529 l-6 -208 24 7 c84 24 430 213 553 303
l49 36 -7 -30 c-5 -16 -11 -182 -16 -369 -8 -392 -12 -411 -101 -542 l-29 -42
52 -70 c108 -143 219 -388 282 -623 69 -255 74 -694 10 -918 -82 -290 -220
-515 -444 -726 -196 -184 -485 -328 -795 -396 -134 -29 -426 -36 -576 -13
-447 67 -778 242 -1036 546 -189 224 -302 462 -355 747 -17 92 -21 158 -22
309 l-1 191 -110 32 c-227 67 -291 81 -395 87 -390 22 -668 -146 -752 -454
-25 -93 -29 -307 -9 -438 19 -121 15 -115 76 -115 116 0 226 -75 278 -188 27
-60 29 -187 3 -245 -23 -51 -91 -124 -141 -150 -61 -31 -174 -30 -240 3 -61
31 -117 87 -146 147 -26 54 -36 160 -20 218 16 60 65 131 114 166 l44 31 -66
131 c-154 305 -220 561 -222 854 -2 227 35 392 131 583 88 174 211 321 370
441 80 61 297 170 405 203 118 37 511 136 539 136 14 0 27 4 31 10 3 5 -30 80
-73 167 -148 295 -214 492 -231 688 -33 381 133 715 595 1194 70 72 128 130
130 129 1 -2 -10 -30 -26 -63z"/>
<path d="M7771 6034 c-30 -21 -61 -89 -61 -134 0 -36 18 -110 41 -167 12 -30
17 -33 56 -33 49 0 184 58 225 97 23 22 25 28 16 57 -23 65 -92 147 -150 177
-46 23 -96 24 -127 3z"/>
<path d="M6245 5906 c-169 -54 -285 -193 -285 -342 l0 -55 43 -19 c73 -32 247
-60 376 -60 119 0 313 28 367 52 26 12 26 14 21 88 -7 100 -20 140 -66 197
-78 99 -198 153 -334 152 -45 0 -100 -6 -122 -13z"/>
<path d="M8304 5307 c-62 -52 -215 -161 -264 -189 -25 -14 -70 -39 -101 -56
-168 -92 -636 -210 -962 -242 -136 -13 -449 0 -627 26 -110 16 -324 68 -424
103 l-59 21 6 -168 c10 -283 49 -459 143 -643 110 -214 294 -390 538 -514 164
-83 409 -134 581 -120 518 42 1013 366 1161 761 37 96 70 209 88 298 21 100
31 375 18 506 -10 107 -40 250 -52 250 -3 0 -24 -15 -46 -33z"/>
</g>
</svg>
